{
  "accessors": [
    {
      "bufferView": 2,
      "componentType": 5126,
      "count": 3832,
      "max": [
        1.1437360048294067,
        1.9838563203811646,
        1.5702284574508667
      ],
      "min": [
        -1.2230831384658813,
        -0.054820142686367035,
        -1.5702283382415771
      ],
      "type": "VEC3"
    },
    {
      "bufferView": 2,
      "byteOffset": 45984,
      "componentType": 5126,
      "count": 3832,
      "max": [
        1,
        1,
        0.99999916553497314
      ],
      "min": [
        -1,
        -1,
        -0.99999916553497314
      ],
      "type": "VEC3"
    },
    {
      "bufferView": 3,
      "componentType": 5126,
      "count": 3832,
      "max": [
        0.99999737739562988,
        0.99999988079071045,
        0.99989777803421021,
        1
      ],
      "min": [
        -0.98708230257034302,
        -1,
        -0.999908447265625,
        -1
      ],
      "type": "VEC4"
    },
    {
      "bufferView": 1,
      "componentType": 5126,
      "count": 3832,
      "max": [
        1.0007568597793579,
        0.98580038547515869
      ],
      "min": [
        0.00028797675622627139,
        0.00028458351152949035
      ],
      "type": "VEC2"
    },
    {
      "bufferView": 0,
      "componentType": 5125,
      "count": 21042,
      "max": [
        3831
      ],
      "min": [
        0
      ],
      "type": "SCALAR"
    }
  ],
  "asset": {
    "extras": {
      "author": "creationwasteland (https://sketchfab.com/creationwasteland)",
      "license": "CC-BY-4.0 (http://creativecommons.org/licenses/by/4.0/)",
      "source": "https://sketchfab.com/3d-models/wwii-medical-tent-36d7107c4a5f4799bac06808aff146b2",
      "title": "WWII Medical Tent"
    },
    "generator": "Sketchfab-7.47.0",
    "version": "2.0"
  },
  "bufferViews": [
    {
      "buffer": 0,
      "byteLength": 84168,
      "byteOffset": 0,
      "name": "floatBufferViews",
      "target": 34963
    },
    {
      "buffer": 0,
      "byteLength": 30656,
      "byteOffset": 84168,
      "byteStride": 8,
      "name": "floatBufferViews",
      "target": 34962
    },
    {
      "buffer": 0,
      "byteLength": 91968,
      "byteOffset": 114824,
      "byteStride": 12,
      "name": "floatBufferViews",
      "target": 34962
    },
    {
      "buffer": 0,
      "byteLength": 61312,
      "byteOffset": 206792,
      "byteStride": 16,
      "name": "floatBufferViews",
      "target": 34962
    }
  ],
  "buffers": [
    {
      "byteLength": 268104,
      "uri": "scene.bin"
    }
  ],
  "images": [
    {
      "uri": "textures/Tent_baseColor.png"
    },
    {
      "uri": "textures/Tent_metallicRoughness.png"
    },
    {
      "uri": "textures/Tent_normal.png"
    }
  ],
  "materials": [
    {
      "doubleSided": true,
      "emissiveFactor": [
        0,
        0,
        0
      ],
      "name": "Tent",
      "normalTexture": {
        "index": 2,
        "scale": 1,
        "texCoord": 0
      },
      "occlusionTexture": {
        "index": 1,
        "strength": 1,
        "texCoord": 0
      },
      "pbrMetallicRoughness": {
        "baseColorFactor": [
          1,
          1,
          1,
          1
        ],
        "baseColorTexture": {
          "index": 0,
          "texCoord": 0
        },
        "metallicFactor": 1,
        "metallicRoughnessTexture": {
          "index": 1,
          "texCoord": 0
        },
        "roughnessFactor": 1
      }
    }
  ],
  "meshes": [
    {
      "name": "tent_Tent_0",
      "primitives": [
        {
          "attributes": {
            "NORMAL": 1,
            "POSITION": 0,
            "TANGENT": 2,
            "TEXCOORD_0": 3
          },
          "indices": 4,
          "material": 0,
          "mode": 4
        }
      ]
    }
  ],
  "nodes": [
    {
      "children": [
        1
      ],
      "name": "RootNode (gltf orientation matrix)",
      "rotation": [
        -0.70710678118654746,
        -0,
        -0,
        0.70710678118654757
      ]
    },
    {
      "children": [
        2
      ],
      "name": "RootNode (model correction matrix)"
    },
    {
      "children": [
        3
      ],
      "matrix": [
        1,
        0,
        0,
        0,
        0,
        0,
        1,
        0,
        0,
        -1,
        0,
        0,
        0,
        0,
        0,
        1
      ],
      "name": "1f1475f7c5044006b34b68c662f00d3b.fbx"
    },
    {
      "children": [
        4
      ],
      "name": "RootNode"
    },
    {
      "children": [
        5
      ],
      "name": "tent"
    },
    {
      "mesh": 0,
      "name": "tent_Tent_0"
    }
  ],
  "samplers": [
    {
      "magFilter": 9729,
      "minFilter": 9987,
      "wrapS": 10497,
      "wrapT": 10497
    }
  ],
  "scene": 0,
  "scenes": [
    {
      "name": "OSG_Scene",
      "nodes": [
        0
      ]
    }
  ],
  "textures": [
    {
      "sampler": 0,
      "source": 0
    },
    {
      "sampler": 0,
      "source": 1
    },
    {
      "sampler": 0,
      "source": 2
    }
  ]
}

